<svg xmlns="http://www.w3.org/2000/svg" xmlns:xlink="http://www.w3.org/1999/xlink" width="1050pt" height="702pt" viewBox="0.00 0.00 1049.95 702.02">
<g id="graph0" class="graph" transform="scale(1 1) rotate(0) translate(4 698.02)">
<title>TrackFlixArchitecture</title>
<polygon fill="white" stroke="none" points="-4,4 -4,-698.02 1045.95,-698.02 1045.95,4 -4,4"/>
<g id="clust1" class="cluster">
<title>cluster_frontend</title>
<path fill="white" stroke="steelblue" d="M152.35,-412.02C152.35,-412.02 289.4,-412.02 289.4,-412.02 295.4,-412.02 301.4,-418.02 301.4,-424.02 301.4,-424.02 301.4,-477.02 301.4,-477.02 301.4,-483.02 295.4,-489.02 289.4,-489.02 289.4,-489.02 152.35,-489.02 152.35,-489.02 146.35,-489.02 140.35,-483.02 140.35,-477.02 140.35,-477.02 140.35,-424.02 140.35,-424.02 140.35,-418.02 146.35,-412.02 152.35,-412.02"/>
<text text-anchor="middle" x="220.88" y="-472.42" font-family="Times,serif" font-size="14.00" fill="steelblue">Frontend Layer</text>
</g>
<g id="clust2" class="cluster">
<title>cluster_backend</title>
<path fill="white" stroke="seagreen" d="M474.56,-55.02C474.56,-55.02 1021.95,-55.02 1021.95,-55.02 1027.95,-55.02 1033.95,-61.02 1033.95,-67.02 1033.95,-67.02 1033.95,-192.02 1033.95,-192.02 1033.95,-198.02 1027.95,-204.02 1021.95,-204.02 1021.95,-204.02 474.56,-204.02 474.56,-204.02 468.56,-204.02 462.56,-198.02 462.56,-192.02 462.56,-192.02 462.56,-67.02 462.56,-67.02 462.56,-61.02 468.56,-55.02 474.56,-55.02"/>
<text text-anchor="middle" x="748.26" y="-187.42" font-family="Times,serif" font-size="14.00" fill="seagreen">Backend Layer</text>
</g>
<g id="clust3" class="cluster">
<title>cluster_database</title>
<path fill="white" stroke="darkorange" d="M855.8,-258.02C855.8,-258.02 971.18,-258.02 971.18,-258.02 977.18,-258.02 983.18,-264.02 983.18,-270.02 983.18,-270.02 983.18,-584.02 983.18,-584.02 983.18,-590.02 977.18,-596.02 971.18,-596.02 971.18,-596.02 855.8,-596.02 855.8,-596.02 849.8,-596.02 843.8,-590.02 843.8,-584.02 843.8,-584.02 843.8,-270.02 843.8,-270.02 843.8,-264.02 849.8,-258.02 855.8,-258.02"/>
<text text-anchor="middle" x="913.49" y="-579.42" font-family="Times,serif" font-size="14.00" fill="darkorange">Database Layer</text>
</g>
<!-- User -->
<g id="node1" class="node">
<title>User</title>
<polygon fill="#ffec8b" stroke="black" points="54,-456.02 0,-456.02 0,-420.02 54,-420.02 54,-456.02"/>
<text text-anchor="middle" x="27" y="-434.42" font-family="Helvetica,sans-Serif" font-size="12.00">User</text>
</g>
<!-- Frontend -->
<g id="node2" class="node">
<title>Frontend</title>
<polygon fill="lightblue" stroke="black" points="293.4,-456.42 152.35,-456.42 148.35,-452.42 148.35,-419.62 289.4,-419.62 293.4,-423.62 293.4,-456.42"/>
<polyline fill="none" stroke="black" points="289.4,-452.42 148.35,-452.42"/>
<polyline fill="none" stroke="black" points="289.4,-452.42 289.4,-419.62"/>
<polyline fill="none" stroke="black" points="289.4,-452.42 293.4,-456.42"/>
<text text-anchor="middle" x="220.88" y="-441.62" font-family="Helvetica,sans-Serif" font-size="12.00">Frontend</text>
<text text-anchor="middle" x="220.88" y="-427.22" font-family="Helvetica,sans-Serif" font-size="12.00">React.js + Tailwind CSS</text>
</g>
<!-- User&#45;&gt;Frontend -->
<g id="edge1" class="edge">
<title>User-&gt;Frontend</title>
<path fill="none" stroke="black" stroke-width="1.5" d="M54.28,-438.02C75.48,-438.02 106.52,-438.02 136.02,-438.02"/>
<polygon fill="black" stroke="black" stroke-width="1.5" points="135.82,-441.52 145.82,-438.02 135.82,-434.52 135.82,-441.52"/>
<text text-anchor="middle" x="101.18" y="-441.02" font-family="Helvetica,sans-Serif" font-size="10.00">interacts with</text>
</g>
<!-- Backend -->
<g id="node3" class="node">
<title>Backend</title>
<polygon fill="lightgreen" stroke="black" points="596.27,-171.42 474.56,-171.42 470.56,-167.42 470.56,-62.62 592.27,-62.62 596.27,-66.62 596.27,-171.42"/>
<polyline fill="none" stroke="black" points="592.27,-167.42 470.56,-167.42"/>
<polyline fill="none" stroke="black" points="592.27,-167.42 592.27,-62.62"/>
<polyline fill="none" stroke="black" points="592.27,-167.42 596.27,-171.42"/>
<text text-anchor="middle" x="533.42" y="-156.62" font-family="Helvetica,sans-Serif" font-size="12.00">Backend</text>
<text text-anchor="middle" x="533.42" y="-142.22" font-family="Helvetica,sans-Serif" font-size="12.00">Node.js + Express.js</text>
<text text-anchor="middle" x="533.42" y="-127.82" font-family="Helvetica,sans-Serif" font-size="12.00">- Auth (Firebase)</text>
<text text-anchor="middle" x="533.42" y="-113.42" font-family="Helvetica,sans-Serif" font-size="12.00">- Movie/TV CRUD</text>
<text text-anchor="middle" x="533.42" y="-99.02" font-family="Helvetica,sans-Serif" font-size="12.00">- Recommendations</text>
<text text-anchor="middle" x="533.42" y="-84.62" font-family="Helvetica,sans-Serif" font-size="12.00">- Payment Mock</text>
<text text-anchor="middle" x="533.42" y="-70.22" font-family="Helvetica,sans-Serif" font-size="12.00">- Chatbot API</text>
</g>
<!-- Frontend&#45;&gt;Backend -->
<g id="edge2" class="edge">
<title>Frontend-&gt;Backend</title>
<path fill="none" stroke="blue" stroke-width="1.5" d="M239.92,-419.37C284.1,-373.7 399.38,-254.54 471.32,-180.18"/>
<polygon fill="blue" stroke="blue" stroke-width="1.5" points="473.42,-183.04 477.86,-173.42 468.39,-178.17 473.42,-183.04"/>
<text text-anchor="middle" x="381.98" y="-346.17" font-family="Helvetica,sans-Serif" font-size="10.00">API Requests (REST/GraphQL)</text>
</g>
<!-- WatchlistNode -->
<g id="node8" class="node">
<title>WatchlistNode</title>
<polygon fill="lightyellow" stroke="black" points="945.83,-47.02 881.16,-47.02 881.16,-11.02 945.83,-11.02 945.83,-47.02"/>
<text text-anchor="middle" x="913.49" y="-25.42" font-family="Helvetica,sans-Serif" font-size="12.00">Watchlist</text>
</g>
<!-- Frontend&#45;&gt;WatchlistNode -->
<g id="edge11" class="edge">
<title>Frontend-&gt;WatchlistNode</title>
<path fill="none" stroke="black" stroke-dasharray="5,2" d="M225.46,-419.46C239.9,-350.71 301.02,-110.77 462.56,-39.02 600.52,22.26 786.52,-3.26 869.46,-19.47"/>
<polygon fill="black" stroke="black" points="868.72,-22.89 879.22,-21.43 870.1,-16.03 868.72,-22.89"/>
<text text-anchor="middle" x="533.42" y="-42.02" font-family="Helvetica,sans-Serif" font-size="10.00">view/add</text>
</g>
<!-- MoviesNode -->
<g id="node9" class="node">
<title>MoviesNode</title>
<polygon fill="lightcyan" stroke="black" points="989.51,-694.02 837.47,-694.02 837.47,-658.02 989.51,-658.02 989.51,-694.02"/>
<text text-anchor="middle" x="913.49" y="-672.42" font-family="Helvetica,sans-Serif" font-size="12.00">Movies / FullMovieDetails</text>
</g>
<!-- Frontend&#45;&gt;MoviesNode -->
<g id="edge12" class="edge">
<title>Frontend-&gt;MoviesNode</title>
<path fill="none" stroke="black" stroke-dasharray="5,2" d="M238.37,-456.77C255.4,-475.38 283.35,-503.96 311.4,-524.02 372.89,-568 390.79,-578.26 462.56,-602.02 585.03,-642.56 733.89,-661.47 825.92,-669.87"/>
<polygon fill="black" stroke="black" points="825.35,-673.33 835.62,-670.73 825.97,-666.36 825.35,-673.33"/>
<text text-anchor="middle" x="533.42" y="-638.62" font-family="Helvetica,sans-Serif" font-size="10.00">view</text>
</g>
<!-- RecommendationsNode -->
<g id="node11" class="node">
<title>RecommendationsNode</title>
<polygon fill="lightgreen" stroke="black" points="1033.54,-640.02 793.44,-640.02 793.44,-604.02 1033.54,-604.02 1033.54,-640.02"/>
<text text-anchor="middle" x="913.49" y="-618.42" font-family="Helvetica,sans-Serif" font-size="12.00">Recommendations / Top10 / FanFavorites</text>
</g>
<!-- Frontend&#45;&gt;RecommendationsNode -->
<g id="edge13" class="edge">
<title>Frontend-&gt;RecommendationsNode</title>
<path fill="none" stroke="black" stroke-dasharray="5,2" d="M260.02,-456.89C328.9,-490.05 479.43,-558.35 614.27,-591.02 668.24,-604.09 729.01,-611.65 781.55,-616.03"/>
<polygon fill="black" stroke="black" points="781.22,-619.51 791.46,-616.82 781.77,-612.53 781.22,-619.51"/>
<text text-anchor="middle" x="533.42" y="-589.4" font-family="Helvetica,sans-Serif" font-size="10.00">view</text>
</g>
<!-- FirebaseAuth -->
<g id="node4" class="node">
<title>FirebaseAuth</title>
<ellipse fill="lightpink" stroke="black" cx="913.49" cy="-91.02" rx="57.93" ry="18"/>
<text text-anchor="middle" x="913.49" y="-87.42" font-family="Helvetica,sans-Serif" font-size="12.00">Firebase Auth</text>
</g>
<!-- Backend&#45;&gt;FirebaseAuth -->
<g id="edge5" class="edge">
<title>Backend-&gt;FirebaseAuth</title>
<path fill="none" stroke="red" stroke-width="1.5" d="M596.75,-111.41C602.67,-110.92 608.58,-110.45 614.27,-110.02 693.04,-104.06 783.61,-98.47 844.07,-94.91"/>
<polygon fill="red" stroke="red" stroke-width="1.5" points="844.08,-98.42 853.86,-94.34 843.67,-91.43 844.08,-98.42"/>
<text text-anchor="middle" x="694.86" y="-113.02" font-family="Helvetica,sans-Serif" font-size="10.00">Authenticate Users</text>
</g>
<!-- ChatbotAPI -->
<g id="node5" class="node">
<title>ChatbotAPI</title>
<ellipse fill="lightpink" stroke="black" cx="913.49" cy="-145.02" rx="112.46" ry="18"/>
<text text-anchor="middle" x="913.49" y="-141.42" font-family="Helvetica,sans-Serif" font-size="12.00">Chatbot / External Movie APIs</text>
</g>
<!-- Backend&#45;&gt;ChatbotAPI -->
<g id="edge6" class="edge">
<title>Backend-&gt;ChatbotAPI</title>
<path fill="none" stroke="purple" stroke-width="1.5" d="M596.43,-121.61C651.06,-125.66 732.03,-131.65 798.33,-136.56"/>
<polygon fill="purple" stroke="purple" stroke-width="1.5" points="798.04,-140.05 808.27,-137.3 798.56,-133.07 798.04,-140.05"/>
<text text-anchor="middle" x="694.86" y="-137.35" font-family="Helvetica,sans-Serif" font-size="10.00">Query Chatbot / Movie Data</text>
</g>
<!-- MongoDB -->
<g id="node6" class="node">
<title>MongoDB</title>
<path fill="#ffa500" stroke="black" d="M975.18,-542.62C975.18,-554.1 947.53,-563.42 913.49,-563.42 879.45,-563.42 851.8,-554.1 851.8,-542.62 851.8,-542.62 851.8,-355.42 851.8,-355.42 851.8,-343.94 879.45,-334.62 913.49,-334.62 947.53,-334.62 975.18,-343.94 975.18,-355.42 975.18,-355.42 975.18,-542.62 975.18,-542.62"/>
<path fill="none" stroke="black" d="M975.18,-542.62C975.18,-531.14 947.53,-521.82 913.49,-521.82 879.45,-521.82 851.8,-531.14 851.8,-542.62"/>
<text text-anchor="middle" x="913.49" y="-517.42" font-family="Helvetica,sans-Serif" font-size="12.00">MongoDB</text>
<text text-anchor="middle" x="913.49" y="-503.02" font-family="Helvetica,sans-Serif" font-size="12.00">- Users</text>
<text text-anchor="middle" x="913.49" y="-488.62" font-family="Helvetica,sans-Serif" font-size="12.00">- Watchlist</text>
<text text-anchor="middle" x="913.49" y="-474.22" font-family="Helvetica,sans-Serif" font-size="12.00">- Movies</text>
<text text-anchor="middle" x="913.49" y="-459.82" font-family="Helvetica,sans-Serif" font-size="12.00">- FullMovieDetails</text>
<text text-anchor="middle" x="913.49" y="-445.42" font-family="Helvetica,sans-Serif" font-size="12.00">- LiveShow</text>
<text text-anchor="middle" x="913.49" y="-431.02" font-family="Helvetica,sans-Serif" font-size="12.00">- LiveTVShow</text>
<text text-anchor="middle" x="913.49" y="-416.62" font-family="Helvetica,sans-Serif" font-size="12.00">- Celebrities</text>
<text text-anchor="middle" x="913.49" y="-402.22" font-family="Helvetica,sans-Serif" font-size="12.00">- Awards</text>
<text text-anchor="middle" x="913.49" y="-387.82" font-family="Helvetica,sans-Serif" font-size="12.00">- Recommendations</text>
<text text-anchor="middle" x="913.49" y="-373.42" font-family="Helvetica,sans-Serif" font-size="12.00">- Top10Movies</text>
</g>
<!-- Backend&#45;&gt;MongoDB -->
<g id="edge3" class="edge">
<title>Backend-&gt;MongoDB</title>
<path fill="none" stroke="darkorange" stroke-width="1.5" d="M549.1,-171.72C561.44,-209.24 582.28,-258.16 614.27,-292.02 676.96,-358.35 773.96,-402.13 840.2,-426.22"/>
<polygon fill="darkorange" stroke="darkorange" stroke-width="1.5" points="838.64,-429.38 849.23,-429.44 840.99,-422.79 838.64,-429.38"/>
<text text-anchor="middle" x="694.86" y="-412.98" font-family="Helvetica,sans-Serif" font-size="10.00">CRUD Operations</text>
<text text-anchor="middle" x="694.86" y="-400.98" font-family="Helvetica,sans-Serif" font-size="10.00">Movies/Watchlist/Recommendations</text>
</g>
<!-- MySQL -->
<g id="node7" class="node">
<title>MySQL</title>
<path fill="gold" stroke="black" d="M971.83,-311.72C971.83,-314.26 945.68,-316.32 913.49,-316.32 881.3,-316.32 855.15,-314.26 855.15,-311.72 855.15,-311.72 855.15,-270.32 855.15,-270.32 855.15,-267.78 881.3,-265.72 913.49,-265.72 945.68,-265.72 971.83,-267.78 971.83,-270.32 971.83,-270.32 971.83,-311.72 971.83,-311.72"/>
<path fill="none" stroke="black" d="M971.83,-311.72C971.83,-309.18 945.68,-307.12 913.49,-307.12 881.3,-307.12 855.15,-309.18 855.15,-311.72"/>
<text text-anchor="middle" x="913.49" y="-294.62" font-family="Helvetica,sans-Serif" font-size="12.00">MySQL</text>
<text text-anchor="middle" x="913.49" y="-280.22" font-family="Helvetica,sans-Serif" font-size="12.00">- Payments (mock)</text>
</g>
<!-- Backend&#45;&gt;MySQL -->
<g id="edge4" class="edge">
<title>Backend-&gt;MySQL</title>
<path fill="none" stroke="goldenrod" stroke-width="1.5" d="M566.75,-171.73C579.53,-189.17 595.65,-207.03 614.27,-219.02 683.92,-263.83 778.97,-280.77 842.87,-287.16"/>
<polygon fill="goldenrod" stroke="goldenrod" stroke-width="1.5" points="842.29,-290.62 852.57,-288.06 842.93,-283.65 842.29,-290.62"/>
<text text-anchor="middle" x="694.86" y="-279.24" font-family="Helvetica,sans-Serif" font-size="10.00">Payment Transactions</text>
</g>
<!-- Backend&#45;&gt;WatchlistNode -->
<g id="edge7" class="edge">
<title>Backend-&gt;WatchlistNode</title>
<path fill="none" stroke="black" d="M596.7,-88.94C602.58,-86.77 608.5,-84.75 614.27,-83.02 703.17,-56.41 811.11,-40.84 869.67,-33.72"/>
<polygon fill="black" stroke="black" points="870.02,-37.2 879.54,-32.55 869.2,-30.25 870.02,-37.2"/>
<text text-anchor="middle" x="694.86" y="-86.02" font-family="Helvetica,sans-Serif" font-size="10.00">manage</text>
</g>
<!-- Backend&#45;&gt;MoviesNode -->
<g id="edge8" class="edge">
<title>Backend-&gt;MoviesNode</title>
<path fill="none" stroke="black" d="M539.2,-171.66C548.87,-272.04 573.38,-480.95 614.27,-540.02 661.99,-608.95 703.86,-594.38 775.44,-638.02 783.45,-642.9 784.75,-645.49 793.44,-649.02 803.75,-653.21 814.84,-656.81 825.95,-659.9"/>
<polygon fill="black" stroke="black" points="825.02,-663.27 835.58,-662.43 826.8,-656.5 825.02,-663.27"/>
<text text-anchor="middle" x="694.86" y="-641.02" font-family="Helvetica,sans-Serif" font-size="10.00">manage</text>
</g>
<!-- CelebritiesNode -->
<g id="node10" class="node">
<title>CelebritiesNode</title>
<polygon fill="lightpink" stroke="black" points="992.18,-248.02 834.8,-248.02 834.8,-212.02 992.18,-212.02 992.18,-248.02"/>
<text text-anchor="middle" x="913.49" y="-226.42" font-family="Helvetica,sans-Serif" font-size="12.00">Celebrities / Cast / Awards</text>
</g>
<!-- Backend&#45;&gt;CelebritiesNode -->
<g id="edge9" class="edge">
<title>Backend-&gt;CelebritiesNode</title>
<path fill="none" stroke="black" d="M596.57,-143.26C602.53,-145.61 608.5,-147.9 614.27,-150.02 692.83,-178.91 712.3,-187.48 793.44,-208.02 803.09,-210.46 813.25,-212.75 823.39,-214.87"/>
<polygon fill="black" stroke="black" points="822.39,-218.24 832.88,-216.79 823.78,-211.37 822.39,-218.24"/>
<text text-anchor="middle" x="694.86" y="-206.3" font-family="Helvetica,sans-Serif" font-size="10.00">manage</text>
</g>
<!-- Backend&#45;&gt;RecommendationsNode -->
<g id="edge10" class="edge">
<title>Backend-&gt;RecommendationsNode</title>
<path fill="none" stroke="black" d="M536.57,-171.85C541.69,-237.95 558.64,-349.67 614.27,-426.02 664.2,-494.53 725.79,-459.31 775.44,-528.02 792.65,-551.83 774.42,-572.42 790.23,-595.21"/>
<polygon fill="black" stroke="black" points="787.48,-597.39 796.72,-602.58 792.74,-592.76 787.48,-597.39"/>
<text text-anchor="middle" x="694.86" y="-531.02" font-family="Helvetica,sans-Serif" font-size="10.00">generate</text>
</g>
</g>
</svg>