<svg xmlns="http://www.w3.org/2000/svg" xmlns:xlink="http://www.w3.org/1999/xlink" width="1148pt" height="648pt" viewBox="0.00 0.00 1147.96 648.00">
<g id="graph0" class="graph" transform="scale(0.65008 0.65008) rotate(0) translate(4 992.8)">
<title>TrackFlixFullDB</title>
<polygon fill="white" stroke="none" points="-4,4 -4,-992.8 1761.87,-992.8 1761.87,4 -4,4"/>
<!-- All_FullMovies -->
<g id="node1" class="node">
<title>All_FullMovies</title>
<polygon fill="lightyellow" stroke="black" points="1288.76,-887.9 1288.76,-988.3 1450.98,-988.3 1450.98,-887.9 1288.76,-887.9"/>
<text text-anchor="middle" x="1332.21" y="-934.8" font-family="Arial" font-size="11.00">All_FullMovies</text>
<polyline fill="none" stroke="black" points="1375.66,-887.9 1375.66,-988.3"/>
<text text-anchor="start" x="1383.66" y="-974.4" font-family="Arial" font-size="11.00">id</text>
<text text-anchor="start" x="1383.66" y="-961.2" font-family="Arial" font-size="11.00">title</text>
<text text-anchor="start" x="1383.66" y="-948" font-family="Arial" font-size="11.00">rating</text>
<text text-anchor="start" x="1383.66" y="-934.8" font-family="Arial" font-size="11.00">genres[]</text>
<text text-anchor="start" x="1383.66" y="-921.6" font-family="Arial" font-size="11.00">releaseDate</text>
<text text-anchor="start" x="1383.66" y="-908.4" font-family="Arial" font-size="11.00">trailer</text>
<text text-anchor="start" x="1383.66" y="-895.2" font-family="Arial" font-size="11.00">image</text>
</g>
<!-- All_FullMovieDetails -->
<g id="node2" class="node">
<title>All_FullMovieDetails</title>
<polygon fill="orange" stroke="black" points="1247.79,-597.1 1247.79,-869.1 1491.94,-869.1 1491.94,-597.1 1247.79,-597.1"/>
<text text-anchor="middle" x="1305.31" y="-729.8" font-family="Arial" font-size="11.00">All_FullMovieDetails</text>
<polyline fill="none" stroke="black" points="1362.82,-597.1 1362.82,-869.1"/>
<text text-anchor="start" x="1370.82" y="-855.2" font-family="Arial" font-size="11.00">id</text>
<text text-anchor="start" x="1370.82" y="-842" font-family="Arial" font-size="11.00">title</text>
<text text-anchor="start" x="1370.82" y="-828.8" font-family="Arial" font-size="11.00">overview</text>
<text text-anchor="start" x="1370.82" y="-815.6" font-family="Arial" font-size="11.00">releaseDate</text>
<text text-anchor="start" x="1370.82" y="-802.4" font-family="Arial" font-size="11.00">rating</text>
<text text-anchor="start" x="1370.82" y="-789.2" font-family="Arial" font-size="11.00">genres[]</text>
<text text-anchor="start" x="1370.82" y="-776" font-family="Arial" font-size="11.00">runtime</text>
<text text-anchor="start" x="1370.82" y="-762.8" font-family="Arial" font-size="11.00">language</text>
<text text-anchor="start" x="1370.82" y="-749.6" font-family="Arial" font-size="11.00">country</text>
<text text-anchor="start" x="1370.82" y="-736.4" font-family="Arial" font-size="11.00">budget</text>
<text text-anchor="start" x="1370.82" y="-723.2" font-family="Arial" font-size="11.00">boxOffice</text>
<text text-anchor="start" x="1370.82" y="-710" font-family="Arial" font-size="11.00">productionCompanies[]</text>
<text text-anchor="start" x="1370.82" y="-696.8" font-family="Arial" font-size="11.00">ageRating</text>
<text text-anchor="start" x="1370.82" y="-683.6" font-family="Arial" font-size="11.00">director[]</text>
<text text-anchor="start" x="1370.82" y="-670.4" font-family="Arial" font-size="11.00">writers[]</text>
<text text-anchor="start" x="1370.82" y="-657.2" font-family="Arial" font-size="11.00">cast[]</text>
<text text-anchor="start" x="1370.82" y="-644" font-family="Arial" font-size="11.00">trailer</text>
<text text-anchor="start" x="1370.82" y="-630.8" font-family="Arial" font-size="11.00">image</text>
<text text-anchor="start" x="1370.82" y="-617.6" font-family="Arial" font-size="11.00">awards[]</text>
<text text-anchor="start" x="1370.82" y="-604.4" font-family="Arial" font-size="11.00">similarMovies[]</text>
</g>
<!-- All_LiveShow -->
<g id="node3" class="node">
<title>All_LiveShow</title>
<polygon fill="lightgreen" stroke="black" points="1278.05,-332.3 1278.05,-577.9 1461.69,-577.9 1461.69,-332.3 1278.05,-332.3"/>
<text text-anchor="middle" x="1319.06" y="-451.8" font-family="Arial" font-size="11.00">All_LiveShow</text>
<polyline fill="none" stroke="black" points="1360.08,-332.3 1360.08,-577.9"/>
<text text-anchor="start" x="1368.08" y="-564" font-family="Arial" font-size="11.00">id</text>
<text text-anchor="start" x="1368.08" y="-550.8" font-family="Arial" font-size="11.00">title</text>
<text text-anchor="start" x="1368.08" y="-537.6" font-family="Arial" font-size="11.00">overview</text>
<text text-anchor="start" x="1368.08" y="-524.4" font-family="Arial" font-size="11.00">releaseDate</text>
<text text-anchor="start" x="1368.08" y="-511.2" font-family="Arial" font-size="11.00">status</text>
<text text-anchor="start" x="1368.08" y="-498" font-family="Arial" font-size="11.00">rating</text>
<text text-anchor="start" x="1368.08" y="-484.8" font-family="Arial" font-size="11.00">genres[]</text>
<text text-anchor="start" x="1368.08" y="-471.6" font-family="Arial" font-size="11.00">episodeRuntime[]</text>
<text text-anchor="start" x="1368.08" y="-458.4" font-family="Arial" font-size="11.00">seasons</text>
<text text-anchor="start" x="1368.08" y="-445.2" font-family="Arial" font-size="11.00">episodes</text>
<text text-anchor="start" x="1368.08" y="-432" font-family="Arial" font-size="11.00">language[]</text>
<text text-anchor="middle" x="1410.89" y="-418.8" font-family="Arial" font-size="11.00">country</text>
<text text-anchor="start" x="1368.08" y="-405.6" font-family="Arial" font-size="11.00">etworks[]</text>
<text text-anchor="start" x="1368.08" y="-392.4" font-family="Arial" font-size="11.00">creators[]</text>
<text text-anchor="start" x="1368.08" y="-379.2" font-family="Arial" font-size="11.00">cast[]</text>
<text text-anchor="start" x="1368.08" y="-366" font-family="Arial" font-size="11.00">trailer</text>
<text text-anchor="start" x="1368.08" y="-352.8" font-family="Arial" font-size="11.00">image</text>
<text text-anchor="start" x="1368.08" y="-339.6" font-family="Arial" font-size="11.00">awards[]</text>
</g>
<!-- All_LiveTVShow -->
<g id="node4" class="node">
<title>All_LiveTVShow</title>
<polygon fill="lightblue" stroke="black" points="1284.16,-212.9 1284.16,-313.3 1455.57,-313.3 1455.57,-212.9 1284.16,-212.9"/>
<text text-anchor="middle" x="1332.21" y="-259.8" font-family="Arial" font-size="11.00">All_LiveTVShow</text>
<polyline fill="none" stroke="black" points="1380.26,-212.9 1380.26,-313.3"/>
<text text-anchor="start" x="1388.26" y="-299.4" font-family="Arial" font-size="11.00">id</text>
<text text-anchor="start" x="1388.26" y="-286.2" font-family="Arial" font-size="11.00">title</text>
<text text-anchor="start" x="1388.26" y="-273" font-family="Arial" font-size="11.00">rating</text>
<text text-anchor="start" x="1388.26" y="-259.8" font-family="Arial" font-size="11.00">genres[]</text>
<text text-anchor="start" x="1388.26" y="-246.6" font-family="Arial" font-size="11.00">releaseDate</text>
<text text-anchor="start" x="1388.26" y="-233.4" font-family="Arial" font-size="11.00">trailer</text>
<text text-anchor="start" x="1388.26" y="-220.2" font-family="Arial" font-size="11.00">image</text>
</g>
<!-- All_FtRecommendations -->
<g id="node5" class="node">
<title>All_FtRecommendations</title>
<polygon fill="lightpink" stroke="black" points="254.11,-401.5 254.11,-488.7 453.62,-488.7 453.62,-401.5 254.11,-401.5"/>
<text text-anchor="middle" x="322.02" y="-441.8" font-family="Arial" font-size="11.00">All_FtRecommendations</text>
<polyline fill="none" stroke="black" points="389.94,-401.5 389.94,-488.7"/>
<text text-anchor="start" x="397.94" y="-474.8" font-family="Arial" font-size="11.00">id</text>
<text text-anchor="start" x="397.94" y="-461.6" font-family="Arial" font-size="11.00">title</text>
<text text-anchor="start" x="397.94" y="-448.4" font-family="Arial" font-size="11.00">img</text>
<text text-anchor="start" x="397.94" y="-435.2" font-family="Arial" font-size="11.00">rating</text>
<text text-anchor="start" x="397.94" y="-422" font-family="Arial" font-size="11.00">genres[]</text>
<text text-anchor="start" x="397.94" y="-408.8" font-family="Arial" font-size="11.00">trailerLink</text>
</g>
<!-- FanFavourite -->
<g id="node6" class="node">
<title>FanFavourite</title>
<polygon fill="lightcyan" stroke="black" points="1297.62,-106.5 1297.62,-193.7 1442.11,-193.7 1442.11,-106.5 1297.62,-106.5"/>
<text text-anchor="middle" x="1338.02" y="-146.8" font-family="Arial" font-size="11.00">FanFavourite</text>
<polyline fill="none" stroke="black" points="1378.43,-106.5 1378.43,-193.7"/>
<text text-anchor="start" x="1386.43" y="-179.8" font-family="Arial" font-size="11.00">id</text>
<text text-anchor="start" x="1386.43" y="-166.6" font-family="Arial" font-size="11.00">title</text>
<text text-anchor="start" x="1386.43" y="-153.4" font-family="Arial" font-size="11.00">img</text>
<text text-anchor="start" x="1386.43" y="-140.2" font-family="Arial" font-size="11.00">rating</text>
<text text-anchor="start" x="1386.43" y="-127" font-family="Arial" font-size="11.00">genres[]</text>
<text text-anchor="start" x="1386.43" y="-113.8" font-family="Arial" font-size="11.00">trailerLink</text>
</g>
<!-- FeaturedItems -->
<g id="node7" class="node">
<title>FeaturedItems</title>
<polygon fill="yellow" stroke="black" points="278.56,-507.5 278.56,-594.7 429.17,-594.7 429.17,-507.5 278.56,-507.5"/>
<text text-anchor="middle" x="322.02" y="-547.8" font-family="Arial" font-size="11.00">FeaturedItems</text>
<polyline fill="none" stroke="black" points="365.48,-507.5 365.48,-594.7"/>
<text text-anchor="start" x="373.48" y="-580.8" font-family="Arial" font-size="11.00">id</text>
<text text-anchor="start" x="373.48" y="-567.6" font-family="Arial" font-size="11.00">title</text>
<text text-anchor="start" x="373.48" y="-554.4" font-family="Arial" font-size="11.00">img</text>
<text text-anchor="start" x="373.48" y="-541.2" font-family="Arial" font-size="11.00">rating</text>
<text text-anchor="start" x="373.48" y="-528" font-family="Arial" font-size="11.00">genres[]</text>
<text text-anchor="start" x="373.48" y="-514.8" font-family="Arial" font-size="11.00">trailerLink</text>
</g>
<!-- Interests -->
<g id="node8" class="node">
<title>Interests</title>
<polygon fill="orange" stroke="black" points="1308.93,-0.5 1308.93,-87.7 1430.8,-87.7 1430.8,-0.5 1308.93,-0.5"/>
<text text-anchor="middle" x="1338.02" y="-40.8" font-family="Arial" font-size="11.00">Interests</text>
<polyline fill="none" stroke="black" points="1367.12,-0.5 1367.12,-87.7"/>
<text text-anchor="start" x="1375.12" y="-73.8" font-family="Arial" font-size="11.00">id</text>
<text text-anchor="start" x="1375.12" y="-60.6" font-family="Arial" font-size="11.00">title</text>
<text text-anchor="start" x="1375.12" y="-47.4" font-family="Arial" font-size="11.00">img</text>
<text text-anchor="start" x="1375.12" y="-34.2" font-family="Arial" font-size="11.00">rating</text>
<text text-anchor="start" x="1375.12" y="-21" font-family="Arial" font-size="11.00">genres[]</text>
<text text-anchor="start" x="1375.12" y="-7.8" font-family="Arial" font-size="11.00">trailerLink</text>
</g>
<!-- All_TopTenMovies -->
<g id="node9" class="node">
<title>All_TopTenMovies</title>
<polygon fill="lightgrey" stroke="black" points="278.56,-613.9 278.56,-714.3 429.17,-714.3 429.17,-613.9 278.56,-613.9"/>
<text text-anchor="middle" x="332.11" y="-660.8" font-family="Arial" font-size="11.00">All_TopTenMovies</text>
<polyline fill="none" stroke="black" points="385.66,-613.9 385.66,-714.3"/>
<text text-anchor="start" x="393.66" y="-700.4" font-family="Arial" font-size="11.00">id</text>
<text text-anchor="start" x="393.66" y="-687.2" font-family="Arial" font-size="11.00">title</text>
<text text-anchor="start" x="393.66" y="-674" font-family="Arial" font-size="11.00">img</text>
<text text-anchor="start" x="393.66" y="-660.8" font-family="Arial" font-size="11.00">rank</text>
<text text-anchor="start" x="393.66" y="-647.6" font-family="Arial" font-size="11.00">rating</text>
<text text-anchor="start" x="393.66" y="-634.4" font-family="Arial" font-size="11.00">year</text>
<text text-anchor="start" x="393.66" y="-621.2" font-family="Arial" font-size="11.00">trailer</text>
</g>
<!-- Celebrity -->
<g id="node10" class="node">
<title>Celebrity</title>
<polygon fill="lightcoral" stroke="black" points="302.41,-733.3 302.41,-780.9 405.33,-780.9 405.33,-733.3 302.41,-733.3"/>
<text text-anchor="middle" x="332.11" y="-753.8" font-family="Arial" font-size="11.00">Celebrity</text>
<polyline fill="none" stroke="black" points="361.81,-733.3 361.81,-780.9"/>
<text text-anchor="middle" x="383.57" y="-767" font-family="Arial" font-size="11.00">id</text>
<text text-anchor="middle" x="383.57" y="-753.8" font-family="Arial" font-size="11.00">name</text>
<text text-anchor="start" x="369.81" y="-740.6" font-family="Arial" font-size="11.00">img</text>
</g>
<!-- RecommendationCelebritiesMore -->
<g id="node11" class="node">
<title>RecommendationCelebritiesMore</title>
<polygon fill="#eedd82" stroke="black" points="242.49,-800.3 242.49,-847.9 465.24,-847.9 465.24,-800.3 242.49,-800.3"/>
<text text-anchor="middle" x="332.11" y="-820.8" font-family="Arial" font-size="11.00">RecommendationCelebritiesMore</text>
<polyline fill="none" stroke="black" points="421.73,-800.3 421.73,-847.9"/>
<text text-anchor="middle" x="443.49" y="-834" font-family="Arial" font-size="11.00">id</text>
<text text-anchor="middle" x="443.49" y="-820.8" font-family="Arial" font-size="11.00">name</text>
<text text-anchor="start" x="429.73" y="-807.6" font-family="Arial" font-size="11.00">img</text>
</g>
<!-- Watchlist -->
<g id="node12" class="node">
<title>Watchlist</title>
<polygon fill="lavender" stroke="black" points="291.11,-335.3 291.11,-382.9 416.63,-382.9 416.63,-335.3 291.11,-335.3"/>
<text text-anchor="middle" x="321.41" y="-355.8" font-family="Arial" font-size="11.00">Watchlist</text>
<polyline fill="none" stroke="black" points="351.72,-335.3 351.72,-382.9"/>
<text text-anchor="middle" x="384.18" y="-369" font-family="Arial" font-size="11.00">userId</text>
<text text-anchor="middle" x="384.18" y="-355.8" font-family="Arial" font-size="11.00">userEmail</text>
<text text-anchor="start" x="359.72" y="-342.6" font-family="Arial" font-size="11.00">movies[]</text>
</g>
<!-- Watchlist&#45;&gt;All_FullMovies -->
<g id="edge1" class="edge">
<title>Watchlist-&gt;All_FullMovies</title>
<path fill="none" stroke="black" d="M417.02,-371.25C552.02,-371.25 856.52,-371.25 856.52,-371.25 856.52,-371.25 856.52,-938.1 856.52,-938.1 856.52,-938.1 1277.01,-938.1 1277.01,-938.1"/>
<polygon fill="black" stroke="black" points="1277.01,-941.6 1287.01,-938.1 1277.01,-934.6 1277.01,-941.6"/>
<text text-anchor="middle" x="844.87" y="-941.1" font-family="Arial" font-size="10.00">contains</text>
</g>
<!-- Watchlist&#45;&gt;All_FullMovieDetails -->
<g id="edge2" class="edge">
<title>Watchlist-&gt;All_FullMovieDetails</title>
<path fill="none" stroke="black" d="M417.07,-359.1C623.22,-359.1 1262.92,-359.1 1262.92,-359.1 1262.92,-359.1 1262.92,-585.24 1262.92,-585.24"/>
<polygon fill="black" stroke="black" points="1259.42,-585.24 1262.92,-595.24 1266.42,-585.24 1259.42,-585.24"/>
<text text-anchor="middle" x="844.87" y="-736.1" font-family="Arial" font-size="10.00">contains</text>
</g>
<!-- Watchlist&#45;&gt;All_LiveShow -->
<g id="edge3" class="edge">
<title>Watchlist-&gt;All_LiveShow</title>
<path fill="none" stroke="black" d="M417.04,-346.95C417.04,-346.95 1266.41,-346.95 1266.41,-346.95"/>
<polygon fill="black" stroke="black" points="1266.41,-350.45 1276.41,-346.95 1266.41,-343.45 1266.41,-350.45"/>
<text text-anchor="middle" x="844.87" y="-458.1" font-family="Arial" font-size="10.00">contains</text>
</g>
<!-- Watchlist&#45;&gt;All_LiveTVShow -->
<g id="edge4" class="edge">
<title>Watchlist-&gt;All_LiveTVShow</title>
<path fill="none" stroke="black" d="M385.25,-334.88C385.25,-306.44 385.25,-263.1 385.25,-263.1 385.25,-263.1 1272.27,-263.1 1272.27,-263.1"/>
<polygon fill="black" stroke="black" points="1272.27,-266.6 1282.27,-263.1 1272.27,-259.6 1272.27,-266.6"/>
<text text-anchor="middle" x="844.87" y="-266.1" font-family="Arial" font-size="10.00">contains</text>
</g>
<!-- Watchlist&#45;&gt;FanFavourite -->
<g id="edge5" class="edge">
<title>Watchlist-&gt;FanFavourite</title>
<path fill="none" stroke="black" d="M353.87,-335.13C353.87,-280.23 353.87,-150.1 353.87,-150.1 353.87,-150.1 1285.69,-150.1 1285.69,-150.1"/>
<polygon fill="black" stroke="black" points="1285.69,-153.6 1295.69,-150.1 1285.69,-146.6 1285.69,-153.6"/>
<text text-anchor="middle" x="844.87" y="-153.1" font-family="Arial" font-size="10.00">can include</text>
</g>
<!-- Watchlist&#45;&gt;Interests -->
<g id="edge6" class="edge">
<title>Watchlist-&gt;Interests</title>
<path fill="none" stroke="black" d="M322.49,-334.91C322.49,-261.14 322.49,-44.1 322.49,-44.1 322.49,-44.1 1297.13,-44.1 1297.13,-44.1"/>
<polygon fill="black" stroke="black" points="1297.13,-47.6 1307.13,-44.1 1297.13,-40.6 1297.13,-47.6"/>
<text text-anchor="middle" x="844.87" y="-47.1" font-family="Arial" font-size="10.00">can include</text>
</g>
</g>
</svg>